<?xml version="1.0" encoding="UTF-8"?>
<svg version="1.1" xmlns="http://www.w3.org/2000/svg" width="175" height="157">
<path d="M0 0 C57.75 0 115.5 0 175 0 C175 51.81 175 103.62 175 157 C117.25 157 59.5 157 0 157 C0 105.19 0 53.38 0 0 Z " fill="#FBFDFB" transform="translate(0,0)"/>
<path d="M0 0 C6.27 0 12.54 0 19 0 C21.23833878 4.47667756 23.15963789 8.82679729 24.875 13.5 C25.22111328 14.428125 25.22111328 14.428125 25.57421875 15.375 C28.11625733 22.22626975 30.54201458 29.11764082 33 36 C33.33 24.12 33.66 12.24 34 0 C40.8990625 -0.1546875 40.8990625 -0.1546875 47.9375 -0.3125 C49.36956787 -0.35802002 50.80163574 -0.40354004 52.27709961 -0.45043945 C61.71086559 -0.55242967 67.55675292 0.99024044 74.5625 7.3125 C75.036875 7.869375 75.51125 8.42625 76 9 C76.33 6.03 76.66 3.06 77 0 C89.24835687 -2.04139281 89.24835687 -2.04139281 95 0 C99.44503249 3.99691539 101.85096939 9.67287018 104.140625 15.09887695 C105.05464325 17.25825612 105.05464325 17.25825612 107 20 C107.33 13.4 107.66 6.8 108 0 C113.94 0 119.88 0 126 0 C126 15.18 126 30.36 126 46 C108 46 108 46 103.3984375 41.625 C101.796875 38.890625 101.796875 38.890625 100.375 36 C99.83617188 35.04609375 99.29734375 34.0921875 98.7421875 33.109375 C97.43368716 30.77276725 96.20788942 28.39016988 95 26 C94.67 32.6 94.34 39.2 94 46 C88.39 46 82.78 46 77 46 C76.505 41.545 76.505 41.545 76 37 C74.989375 37.928125 73.97875 38.85625 72.9375 39.8125 C66.44737041 45.77282309 60.12874004 46.434003 51.69140625 46.29296875 C50.72468491 46.28872391 49.75796356 46.28447906 48.76194763 46.28010559 C45.69517351 46.26340522 42.6290732 46.22576899 39.5625 46.1875 C37.47461891 46.172442 35.38672745 46.15875555 33.29882812 46.14648438 C28.19896185 46.11352999 23.0995949 46.06180751 18 46 C18 45.01 18 44.02 18 43 C12.72 43 7.44 43 2 43 C2 43.99 2 44.98 2 46 C-3.94 46 -9.88 46 -16 46 C-14.01083248 39.21984972 -11.85735801 32.53530843 -9.5 25.875 C-9.20480469 25.03324219 -8.90960937 24.19148438 -8.60546875 23.32421875 C-6.79902178 18.19136283 -4.92518794 13.08945962 -3 8 C-2.01 5.36 -1.02 2.72 0 0 Z " fill="#E33016" transform="translate(24,103)"/>
<path d="M0 0 C57.75 0 115.5 0 175 0 C175 51.81 175 103.62 175 157 C117.25 157 59.5 157 0 157 C0 105.19 0 53.38 0 0 Z M2 2 C2 52.49 2 102.98 2 155 C52.49 155 102.98 155 155 155 C155 104.51 155 54.02 155 2 C104.51 2 54.02 2 2 2 Z " fill="#F4F6F4" transform="translate(0,0)"/>
<path d="M0 0 C12.24835687 -2.04139281 12.24835687 -2.04139281 18 0 C22.44503249 3.99691539 24.85096939 9.67287018 27.140625 15.09887695 C28.05464325 17.25825612 28.05464325 17.25825612 30 20 C30.33 13.4 30.66 6.8 31 0 C36.94 0 42.88 0 49 0 C49 15.18 49 30.36 49 46 C31 46 31 46 26.3984375 41.625 C24.796875 38.890625 24.796875 38.890625 23.375 36 C22.83617188 35.04609375 22.29734375 34.0921875 21.7421875 33.109375 C20.43368716 30.77276725 19.20788942 28.39016988 18 26 C17.67 32.6 17.34 39.2 17 46 C11.39 46 5.78 46 0 46 C-0.12501893 33.49810692 -0.12501893 33.49810692 0.49609375 31.0234375 C1.25547194 27.97415142 1.13154339 25.00928402 1.125 21.875 C1.12757812 20.63492188 1.13015625 19.39484375 1.1328125 18.1171875 C1.21668811 15.09276427 1.21668811 15.09276427 0 13 C-0.07092842 10.7927077 -0.08415025 8.58332548 -0.0625 6.375 C-0.05347656 5.18648438 -0.04445313 3.99796875 -0.03515625 2.7734375 C-0.02355469 1.85820313 -0.01195313 0.94296875 0 0 Z " fill="#0A0709" transform="translate(101,103)"/>
<path d="M0 0 C6.27 0 12.54 0 19 0 C21.20887542 4.41775084 23.11949497 8.70184848 24.8125 13.3125 C25.06531738 13.99820068 25.31813477 14.68390137 25.57861328 15.39038086 C26.11264199 16.84357729 26.64483122 18.29745085 27.17529297 19.75195312 C28.01182255 22.03222677 28.86664021 24.30510448 29.72265625 26.578125 C30.27424027 28.07262063 30.82504381 29.56740458 31.375 31.0625 C31.63772705 31.75190674 31.9004541 32.44131348 32.17114258 33.15161133 C33.89726305 37.9185778 34 40.63645963 34 46 C28.72 46 23.44 46 18 46 C18 45.01 18 44.02 18 43 C12.72 43 7.44 43 2 43 C2 43.99 2 44.98 2 46 C-3.94 46 -9.88 46 -16 46 C-14.01083248 39.21984972 -11.85735801 32.53530843 -9.5 25.875 C-9.20480469 25.03324219 -8.90960937 24.19148438 -8.60546875 23.32421875 C-6.79902178 18.19136283 -4.92518794 13.08945962 -3 8 C-2.01 5.36 -1.02 2.72 0 0 Z " fill="#0A080A" transform="translate(24,103)"/>
<path d="M0 0 C51.48 0 102.96 0 156 0 C156 51.48 156 102.96 156 156 C104.52 156 53.04 156 0 156 C0 104.52 0 53.04 0 0 Z M2 2 C2 52.49 2 102.98 2 155 C52.49 155 102.98 155 155 155 C155 104.51 155 54.02 155 2 C104.51 2 54.02 2 2 2 Z " fill="#373537" transform="translate(0,0)"/>
<path d="M0 0 C2.3125 1.125 2.3125 1.125 4 3 C4.875 6 4.875 6 5 9 C4.01 10.485 4.01 10.485 3 12 C0.375 12.1875 0.375 12.1875 -2 12 C-2 10.68 -2 9.36 -2 8 C-2.66 8 -3.32 8 -4 8 C-4 9.32 -4 10.64 -4 12 C-4.66 12 -5.32 12 -6 12 C-6 9.03 -6 6.06 -6 3 C-8.41121859 4.95633975 -8.41121859 4.95633975 -8.125 8.625 C-8.08375 9.73875 -8.0425 10.8525 -8 12 C-8.66 11.67 -9.32 11.34 -10 11 C-10.48541424 3.59743291 -10.48541424 3.59743291 -8.375 1 C-5.32806078 -0.28292178 -3.27967299 -0.40995912 0 0 Z " fill="#898989" transform="translate(170,1)"/>
<path d="M0 0 C0.66 0 1.32 0 2 0 C2.50757862 1.41396902 3.00574925 2.83131729 3.5 4.25 C3.7784375 5.03890625 4.056875 5.8278125 4.34375 6.640625 C5 9 5 9 5 13 C2.36 13 -0.28 13 -3 13 C-2.45144652 8.428721 -1.58255197 4.32564205 0 0 Z " fill="#E2E4E2" transform="translate(33,119)"/>
<path d="M0 0 C0.66 0.33 1.32 0.66 2 1 C1.01 1.33 0.02 1.66 -1 2 C-1 4.97 -1 7.94 -1 11 C-0.34 11 0.32 11 1 11 C1 9.68 1 8.36 1 7 C1.66 7 2.32 7 3 7 C3 8.32 3 9.64 3 11 C4.32 11.33 5.64 11.66 7 12 C5 14 5 14 2.0625 14.4375 C-1 14 -1 14 -2.9375 11.9375 C-4.29838052 8.17506562 -4.01510866 5.84291135 -3 2 C-2.01 1.34 -1.02 0.68 0 0 Z " fill="#9B9B9B" transform="translate(165,2)"/>
<path d="M0 0 C1.65 0 3.3 0 5 0 C5.70074844 3.153368 6 5.72724974 6 9 C5.34 9 4.68 9 4 9 C4 7.68 4 6.36 4 5 C3.34 5 2.68 5 2 5 C2 6.32 2 7.64 2 9 C1.34 9 0.68 9 0 9 C0 6.03 0 3.06 0 0 Z " fill="#414041" transform="translate(164,4)"/>
<path d="M0 0 C0.66 0.33 1.32 0.66 2 1 C1.01 1.33 0.02 1.66 -1 2 C-1 4.97 -1 7.94 -1 11 C-1.66 11 -2.32 11 -3 11 C-3.75 7.75 -3.75 7.75 -4 4 C-2.0625 1.5625 -2.0625 1.5625 0 0 Z " fill="#F5F7F5" transform="translate(165,2)"/>
<path d="M0 0 C2.97 0 5.94 0 9 0 C9 2.31 9 4.62 9 7 C7.88625 5.824375 7.88625 5.824375 6.75 4.625 C4.02757055 1.76871373 4.02757055 1.76871373 0 0 Z " fill="#EEF0EE" transform="translate(166,0)"/>
</svg>
